<?xml version="1.0" encoding="utf-8"?>
<!-- Generator: Adobe Illustrator 18.0.0, SVG Export Plug-In . SVG Version: 6.00 Build 0)  -->
<!DOCTYPE svg PUBLIC "-//W3C//DTD SVG 1.1//EN" "http://www.w3.org/Graphics/SVG/1.1/DTD/svg11.dtd">
<svg version="1.1" id="Layer_1" xmlns="http://www.w3.org/2000/svg" xmlns:xlink="http://www.w3.org/1999/xlink" x="0px" y="0px"
	 viewBox="0 0 612 792" enable-background="new 0 0 612 792" xml:space="preserve">
<g>
	<polyline fill="none" stroke="#118642" stroke-miterlimit="10" points="0,95.1 167.6,95.1 167.6,61.6 0,61.6 7.6,69.2 	"/>
	<polyline fill="none" stroke="#2256A6" stroke-miterlimit="10" points="78.2,28.1 279.3,28.1 324,61.6 413.4,61.6 413.4,95.1 
		324,95.1 279.3,128.7 78.2,128.7 85.8,136.2 	"/>
	<polyline fill="none" stroke="#EE322D" stroke-miterlimit="10" points="525.1,28.1 324,28.1 279.3,61.6 189.9,61.6 189.9,95.1 
		279.3,95.1 324,128.7 525.1,128.7 517.6,136.2 	"/>
	<polyline fill="none" stroke="#FAA22B" stroke-miterlimit="10" points="603.3,95.1 435.8,95.1 435.8,61.6 603.3,61.6 595.8,69.2 	
		"/>
	<text transform="matrix(1 0 0 1 2.310241e-02 109.9431)" font-family="'Courier'" font-size="18.6184">11TGA  GGCAATCC</text>
	<text transform="matrix(1 0 0 1 2.310241e-02 56.8868)" font-family="'Courier'" font-size="18.6184">12CTA  CGCCAACA</text>
	<text transform="matrix(1 0 0 1 78.2208 42.915)" font-family="'Courier'" font-size="18.6184">21GGTTGT  CCAACTTA</text>
	<text transform="matrix(1 0 0 1 323.984 56.8868)" font-family="'Courier'" font-size="18.6184">22AGATCC</text>
	<text transform="matrix(1 0 0 1 323.984 109.9431)" font-family="'Courier'" font-size="18.6184">23CGAACA</text>
	<text transform="matrix(1 0 0 1 78.2208 123.9056)" font-family="'Courier'" font-size="18.6184">24GTTAGG  ACATTGCA</text>
	<text transform="matrix(1 0 0 1 323.984 42.915)" font-family="'Courier'" font-size="18.6184">31TCTAGG  ACATCTCG</text>
	<text transform="matrix(1 0 0 1 189.9323 56.8868)" font-family="'Courier'" font-size="18.6184">32TTGAAT</text>
	<text transform="matrix(1 0 0 1 189.9323 109.9431)" font-family="'Courier'" font-size="18.6184">33TAACGT</text>
	<text transform="matrix(1 0 0 1 323.984 123.9056)" font-family="'Courier'" font-size="18.6184">34GCTTGT  CCGTTCGC</text>
	<text transform="matrix(1 0 0 1 435.6998 109.9431)" font-family="'Courier'" font-size="18.6184">41CAAGCG  AGTGA</text>
	<text transform="matrix(1 0 0 1 435.6998 56.8868)" font-family="'Courier'" font-size="18.6184">42TAGAGC  ATCTC</text>
	<text transform="matrix(1 0 0 1 28.9338 28.926)" font-family="'Courier'" font-size="22.342">A</text>
	<text transform="matrix(1 0 0 1 561.8967 28.926)" font-family="'Courier'" font-size="22.342">B</text>
	<text transform="matrix(1 0 0 1 561.8967 144.3718)" font-family="'Courier'" font-size="22.342">C</text>
	<text transform="matrix(1 0 0 1 28.9338 144.3718)" font-family="'Courier'" font-size="22.342">D</text>
	<text transform="matrix(1 0 0 1 259.4507 20.5795)" font-family="'Courier'" font-size="26.0659">TC1-A</text>
</g>
</svg>
