<?xml version="1.0" encoding="utf-8"?>
<!-- Generator: Adobe Illustrator 18.0.0, SVG Export Plug-In . SVG Version: 6.00 Build 0)  -->
<!DOCTYPE svg PUBLIC "-//W3C//DTD SVG 1.1//EN" "http://www.w3.org/Graphics/SVG/1.1/DTD/svg11.dtd">
<svg version="1.1" id="Layer_1" xmlns="http://www.w3.org/2000/svg" xmlns:xlink="http://www.w3.org/1999/xlink" x="0px" y="0px"
	 viewBox="0 0 612 792" enable-background="new 0 0 612 792" xml:space="preserve">
<g>
	<text transform="matrix(1 0 0 1 361.5235 367.7325)" fill="#010101" font-family="'Courier'" font-size="27.2155">S1AGCGTA  S1ACC</text>
	<text transform="matrix(1 0 0 1 361.5235 445.3094)" fill="#010101" font-family="'Courier'" font-size="27.2155">S2GTGTGT  TTCCT-AA-BB</text>
	<text transform="matrix(1 0 0 1 524.8434 465.7243)" fill="#010101" font-family="'Courier'" font-size="27.2155">H1ACC-AA-BB</text>
	<text transform="matrix(1 0 0 1 198.233 465.7244)" fill="#010101" font-family="'Courier'" font-size="27.2155">L1AACAGA  GGCACACA</text>
	<text transform="matrix(1 0 0 1 2.2753 445.3094)" fill="#010101" font-family="'Courier'" font-size="27.2155">L2AGCGGG</text>
	<text transform="matrix(1 0 0 1 2.2753 367.7325)" fill="#010101" font-family="'Courier'" font-size="27.2155">L3TTTACC</text>
	<text transform="matrix(1 0 0 1 198.233 347.3156)" fill="#010101" font-family="'Courier'" font-size="27.2155">L4CGCCAA  L5TCGCAT</text>
	<text transform="matrix(1 0 0 1 555.8398 325.5554)" fill="#010101" font-family="'Courier'" font-size="32.6584">b1</text>
	<text transform="matrix(1 0 0 1 283.1424 314.6639)" fill="#010101" font-family="'Courier'" font-size="38.1017">name</text>
	<polyline fill="none" stroke="#EE3724" stroke-width="2" stroke-miterlimit="10" points="492.2,473.7 198.2,473.7 133.1,424.9 
		2.3,424.9 2.3,375.7 133.1,375.7 198.2,327 492.2,327 478.9,314.7 	"/>
	<polyline fill="none" stroke="#FCB316" stroke-width="2" stroke-miterlimit="10" points="606.5,375.7 361.4,375.7 361.4,424.9 
		606.5,424.9 706,424.9 706,473.7 522,473.7 533.7,483.5 	"/>
</g>
</svg>
