<?xml version="1.0" encoding="utf-8"?>
<!-- Generator: Adobe Illustrator 18.0.0, SVG Export Plug-In . SVG Version: 6.00 Build 0)  -->
<!DOCTYPE svg PUBLIC "-//W3C//DTD SVG 1.1//EN" "http://www.w3.org/Graphics/SVG/1.1/DTD/svg11.dtd">
<svg version="1.1" id="Layer_1" xmlns="http://www.w3.org/2000/svg" xmlns:xlink="http://www.w3.org/1999/xlink" x="0px" y="0px"
	 viewBox="0 0 612 792" enable-background="new 0 0 612 792" xml:space="preserve">
<g>
	<polyline fill="none" stroke="#118642" stroke-miterlimit="10" points="0,95.2 167.6,95.2 167.6,61.6 0,61.6 7.6,69.2 	"/>
	<polyline fill="none" stroke="#2256A6" stroke-miterlimit="10" points="78.2,28.1 279.3,28.1 324,61.6 413.4,61.6 413.4,95.2 
		324,95.2 279.3,128.7 78.2,128.7 85.8,136.2 	"/>
	<polyline fill="none" stroke="#EE322D" stroke-miterlimit="10" points="525.1,28.1 324,28.1 279.3,61.6 189.9,61.6 189.9,95.2 
		279.3,95.2 324,128.7 525.1,128.7 517.6,136.2 	"/>
	<polyline fill="none" stroke="#FAA22B" stroke-miterlimit="10" points="603.3,95.2 435.8,95.2 435.8,61.6 603.3,61.6 674,61.6 
		674,28.8 542.8,28.1 547.5,20.5 	"/>
	<text transform="matrix(1 0 0 1 5.070829e-02 109.9462)" font-family="'Courier'" font-size="18.6184">11TGA  GGCAATCC</text>
	<text transform="matrix(1 0 0 1 5.070829e-02 56.8857)" font-family="'Courier'" font-size="18.6184">12CTA  CGCCAACA</text>
	<text transform="matrix(1 0 0 1 78.2443 42.9141)" font-family="'Courier'" font-size="18.6184">21GGTTGT  CCAACTTA</text>
	<text transform="matrix(1 0 0 1 324.0116 56.8857)" font-family="'Courier'" font-size="18.6184">22AGATCC</text>
	<text transform="matrix(1 0 0 1 324.0116 109.9462)" font-family="'Courier'" font-size="18.6184">23CGAACA</text>
	<text transform="matrix(1 0 0 1 78.2443 123.9048)" font-family="'Courier'" font-size="18.6184">24GTTAGG  ACATTGCA</text>
	<text transform="matrix(1 0 0 1 324.0116 42.9141)" font-family="'Courier'" font-size="18.6184">31TCTAGG  ACATCTCG</text>
	<text transform="matrix(1 0 0 1 189.956 56.8857)" font-family="'Courier'" font-size="18.6184">32TTGAAT</text>
	<text transform="matrix(1 0 0 1 189.956 109.9462)" font-family="'Courier'" font-size="18.6184">33TAACGT</text>
	<text transform="matrix(1 0 0 1 324.0116 123.9048)" font-family="'Courier'" font-size="18.6184">34GCTTGT  CCGTTCGC</text>
	<text transform="matrix(1 0 0 1 435.7235 109.9462)" font-family="'Courier'" font-size="18.6184">41CAAGCG  AGTGA</text>
	<text transform="matrix(1 0 0 1 435.7235 56.8857)" font-family="'Courier'" font-size="18.6184">42TAGAGC  ATCTC</text>
	<text transform="matrix(1 0 0 1 603.2604 56.8857)" font-family="'Courier'" font-size="18.6184">-h1-1T</text>
	<text transform="matrix(1 0 0 1 547.4569 42.9141)" font-family="'Courier'" font-size="18.6184">hp12A-GG-TT</text>
	<text transform="matrix(1 0 0 1 28.9575 28.9251)" font-family="'Courier'" font-size="22.342">A</text>
	<text transform="matrix(1 0 0 1 561.9203 144.3709)" font-family="'Courier'" font-size="22.342">C</text>
	<text transform="matrix(1 0 0 1 28.9575 144.3709)" font-family="'Courier'" font-size="22.342">D</text>
	<text transform="matrix(1 0 0 1 259.4762 20.5786)" font-family="'Courier'" font-size="26.0659">TC1-A</text>
</g>
</svg>
